<svg xmlns="http://www.w3.org/2000/svg" xmlns:xlink="http://www.w3.org/1999/xlink" viewBox="0 0 34.71 34.05">
  <defs>
    <linearGradient id="linear-gradient" x1="7.73" y1="18.97" x2="28.3" y2="1.99" gradientUnits="userSpaceOnUse">
      <stop offset="0.28" stop-color="#ed1c24"/>
      <stop offset="1" stop-color="#fcee21"/>
    </linearGradient>
    <linearGradient id="linear-gradient-2" x1="-0.19" y1="17.02" x2="34.81" y2="17.02" gradientUnits="userSpaceOnUse">
      <stop offset="0" stop-color="#ed8924"/>
      <stop offset="1" stop-color="#f7931e"/>
    </linearGradient>
    <linearGradient id="linear-gradient-3" x1="-18.18" y1="33.41" x2="36.92" y2="0.95" gradientUnits="userSpaceOnUse">
      <stop offset="0.3" stop-color="#ed1c24"/>
      <stop offset="0.39" stop-color="#ee3124"/>
      <stop offset="0.58" stop-color="#f26723"/>
      <stop offset="0.85" stop-color="#f8bd22"/>
      <stop offset="1" stop-color="#fcee21"/>
    </linearGradient>
  </defs>
  <g id="Layer_2" data-name="Layer 2">
    <g id="Layer_1-2" data-name="Layer 1">
      <g>
        <path d="M23.39,2.88a14.5,14.5,0,0,0-1.55,4.9,34.15,34.15,0,0,0-.12,3.65c0,.81,0,1.62,0,2.44a8.23,8.23,0,0,1-2.08.69A8.14,8.14,0,0,1,18,14.7a3.94,3.94,0,0,0-.29-1.62A3.37,3.37,0,0,0,17,12a11,11,0,0,0-1-.85,4.14,4.14,0,0,1-1.32-2,5.74,5.74,0,0,1-.2-1.75c.17,0,.24.07.43.33s.3.41.5.71c-.36-1.39-.42-2.2.42-2.4.14.32.27.65.42,1a3.63,3.63,0,0,0,.57,1c-.11-.73-.24-1.46-.32-2.19a1.17,1.17,0,0,1,.2-.71,1,1,0,0,1,.61-.34c.11,0,.35.25.39.42.12.49.17,1,.3,1.49,0-.48,0-1,0-1.45a1.77,1.77,0,0,1,.64-1.49,2.42,2.42,0,0,1,.61-.23,2.21,2.21,0,0,1,.25.48c0,.3,0,.61,0,.92.1-.34.18-.7.31-1a1.8,1.8,0,0,1,1.13-1.22,2.51,2.51,0,0,1,.62-.07,1.68,1.68,0,0,1,0,.45c-.1.36-.25.7-.32,1.07A12.09,12.09,0,0,1,22,3a2.81,2.81,0,0,1,.74-.57,2,2,0,0,1,.66,0C23.39,2.57,23.46,2.75,23.39,2.88Z" fill="url(#linear-gradient)"/>
        <g>
          <path d="M21.48,0a17.05,17.05,0,0,1,9.4,5.86,17.24,17.24,0,0,1,2.79,4.92,16.86,16.86,0,0,1,1,5.58A17.37,17.37,0,0,1,22,33.42,17.31,17.31,0,0,1,5.88,29.74a19.27,19.27,0,0,1-2-2,17.87,17.87,0,0,1-1.61-2.36A16.93,16.93,0,0,1,.3,20a17.57,17.57,0,0,1-.13-5.65A16.94,16.94,0,0,1,5.22,4.51,16.62,16.62,0,0,0,3.47,6.68,16.54,16.54,0,0,0,2.08,9.09,16.83,16.83,0,0,0,.59,14.41,17.16,17.16,0,0,0,.85,19.9a16.6,16.6,0,0,0,2,5.09,16.75,16.75,0,0,0,23.82,5.33,17.16,17.16,0,0,0,3.95-3.75,17,17,0,0,0-4.1-24.24A17.32,17.32,0,0,0,21.48,0Z" fill="url(#linear-gradient-2)"/>
          <path d="M30.65,15.07a3.08,3.08,0,0,1-.87.67,3.13,3.13,0,0,1-.93.31l-1.09.83c-.78.57-1,.65-1.31.93a9.27,9.27,0,0,0-1.33,1.66,15.48,15.48,0,0,1-1.31,1.47c-.27.27-.47.45-.56.53a8.52,8.52,0,0,1-1.87,1.35,9,9,0,0,1-3.16.86c-.38,0-.19,0-2.74-.13a19.34,19.34,0,0,0-3.23,0,4.38,4.38,0,0,0-1.44.3c-.23.1-.68.36-1.57.88-.36.21-.61.36-.91.29a.94.94,0,0,1-.56-.39,3.24,3.24,0,0,1-2.09.69c-.48,0-.57-.19-.59-.23a.29.29,0,0,1,0-.09,1,1,0,0,1,.45-.76,1.93,1.93,0,0,1-1.31-.1,2,2,0,0,1-.78-.68,25.47,25.47,0,0,0,7-2.85l.63-.37a2.82,2.82,0,0,1-.54-.36c-.56-.45-.51-.71.16-1l.43-.19c-.42-.05-.8-.08-1.17-.14a1.37,1.37,0,0,1-.47-.23c-.32-.22-.28-.44.1-.57s.54-.14.79-.21c-.48-.13-1-.23-1.44-.4-.18-.06-.44-.28-.42-.41a.72.72,0,0,1,.43-.47A8.06,8.06,0,0,1,10.05,16c-.23-.1-.51-.18-.75-.31S9,15.45,9,15.32s.21-.31.37-.37c.32-.12.67-.17,1-.27a4.33,4.33,0,0,0,.57-.25L10,13.82c-.27-.19-.27-.39.06-.54l1.4-.56a5.43,5.43,0,0,1-.51-.55c-.1-.16-.2-.42-.13-.55s.38-.16.58-.22a2.74,2.74,0,0,1,.31,0c-.26-.17-.46-.3-.64-.44s-.26-.18-.3-.3a2.83,2.83,0,0,1-.09-.65l.55.13a2.09,2.09,0,0,1,.27.1c-.44-.42-.83-.75-1.16-1.13s-.66-.79-.28-1.39l1.79,1.37c-.47-.58-.89-1.06-1.26-1.59a2.23,2.23,0,0,1-.32-.87.62.62,0,0,1,.25-.48c.09,0,.37.06.48.17.3.29.55.62.87.9-.2-.3-.43-.6-.62-.92A1.76,1.76,0,0,1,11,4.88a1.6,1.6,0,0,1,.32-.43,1.68,1.68,0,0,1,.44.29c.17.21.3.45.5.67-.09-.28-.21-.56-.29-.84A1.53,1.53,0,0,1,12.21,3c.27-.27.41-.24.51.1s.1.4.16.6a4,4,0,0,0,.2.58A2.91,2.91,0,0,1,13.48,2L13.93,2c.15.71.26,1.43.48,2.13.33,1.09.74,2.17,1.12,3.28a6.88,6.88,0,0,0,.26,1.56,4.74,4.74,0,0,0,.5,1.07,4.06,4.06,0,0,0,.77.88c.29.26.59.49.84.76a3.11,3.11,0,0,1,.61.94,4.33,4.33,0,0,1,.27,2.23,4.4,4.4,0,0,0,.07-.73A6.15,6.15,0,0,0,20.3,14,6.07,6.07,0,0,0,22,13.3l.6-.31a4.41,4.41,0,0,1,4.52-1.19,4.09,4.09,0,0,1,2.15,2.14,8.08,8.08,0,0,1,.75.56Z" fill="url(#linear-gradient-3)"/>
        </g>
      </g>
    </g>
  </g>
</svg>
