<svg width="172" height="34" viewBox="0 0 172 34" fill="none" xmlns="http://www.w3.org/2000/svg">
<path d="M0.133412 22.2642C0.133412 20.3869 0.400236 18.6436 1.20071 16.9003C2.268 14.3524 4.13577 12.6092 6.6706 11.8046C9.73907 10.8659 12.941 10.7318 16.0094 11.8046C19.2113 12.8774 21.3459 15.157 22.1464 18.3754C22.9469 21.1915 22.9469 24.1416 22.013 26.9577C20.9457 30.4442 18.5443 32.5898 14.9421 33.5285C13.0744 34.0649 11.0732 34.0649 9.07201 33.7967C7.47107 33.6626 6.00354 33.2603 4.66942 32.4557C2.40142 31.1147 1.20071 29.1033 0.400236 26.6895C0.266824 26.1531 0.133412 25.6167 0 24.9462C0.266824 24.0075 0.266824 23.2029 0.133412 22.2642ZM5.87013 22.5324C5.87013 22.9347 5.87013 23.337 6.00354 23.8734C6.13695 24.9462 6.27036 26.019 6.40377 27.0918C6.53719 27.7623 6.80401 28.4328 7.20425 29.1033C8.13813 30.9806 9.73907 31.6511 11.7403 31.517C14.0083 31.3829 15.3424 30.176 16.1428 28.2987C16.6765 26.9577 16.9433 25.4826 16.9433 24.0075C16.9433 22.6665 16.9433 21.4597 16.9433 20.1187C16.9433 18.9118 16.5431 17.7049 16.1428 16.498C15.0756 13.682 12.4073 12.8774 9.87249 13.5479C8.13813 14.0842 7.20425 15.2911 6.6706 16.7662C6.00354 18.6436 5.87013 20.521 5.87013 22.5324Z" fill="#ED6206"/>
<path d="M169.566 33.5285C167.565 33.5285 165.564 33.5285 163.43 33.5285C163.296 33.5285 163.163 33.3944 163.163 33.3944C162.629 32.3216 162.229 31.2488 161.695 30.3101C160.628 28.1646 159.427 26.1531 158.36 24.0075C158.36 23.8734 158.226 23.7393 158.093 23.6052C158.093 26.9577 158.093 30.176 158.093 33.5285C156.225 33.5285 154.358 33.5285 152.49 33.5285C152.49 26.1531 152.49 18.7777 152.49 11.4023C152.623 11.4023 152.623 11.4023 152.757 11.4023C155.825 11.4023 158.894 11.4023 161.829 11.4023C163.43 11.4023 164.764 11.9387 165.964 13.0115C167.165 14.0842 167.699 15.4252 167.832 16.9003C167.966 18.3754 167.699 19.7164 166.765 20.9233C166.231 21.7278 165.431 22.1301 164.63 22.5324C164.097 22.8006 163.696 22.9347 163.163 23.2029C165.297 26.6895 167.432 30.0419 169.566 33.5285ZM157.96 17.7049C157.96 18.9118 157.96 20.2528 157.96 21.4597C157.96 21.7278 158.093 21.8619 158.36 21.8619C158.627 21.8619 158.894 21.8619 159.294 21.8619C160.628 21.8619 161.562 21.1915 162.095 19.9846C162.629 18.7777 162.629 17.5708 162.362 16.2298C162.095 15.157 161.562 14.2183 160.494 13.8161C159.827 13.5479 159.16 13.5479 158.493 13.5479C158.226 13.5479 158.093 13.682 158.093 13.9502C157.96 15.2911 157.96 16.498 157.96 17.7049Z" fill="#ED6206"/>
<path d="M31.6187 23.6052C31.6187 26.9577 31.6187 30.176 31.6187 33.5285C29.7509 33.5285 27.8831 33.5285 26.0154 33.5285C26.0154 26.1531 26.0154 18.7777 26.0154 11.4023C26.0154 11.4023 26.1488 11.4023 26.2822 11.4023C29.3507 11.4023 32.2857 11.4023 35.3542 11.4023C37.0886 11.4023 38.6895 12.0728 39.8902 13.4138C40.8241 14.4865 41.3578 15.6934 41.3578 17.1685C41.4912 18.5095 41.0909 19.8505 40.2905 21.0574C39.7568 21.8619 38.9563 22.2642 38.0225 22.6665C37.6222 22.9347 37.0886 23.0688 36.5549 23.337C38.6895 26.8236 40.8241 30.176 42.8253 33.6626H42.6919C40.6907 33.6626 38.8229 33.6626 36.8217 33.6626C36.5549 33.6626 36.4215 33.6626 36.4215 33.3944C36.1547 32.858 35.8879 32.1875 35.621 31.6511C34.2869 29.1033 32.9528 26.5554 31.6187 24.1416C31.8855 23.7393 31.7521 23.7393 31.6187 23.6052C31.7521 23.6052 31.7521 23.6052 31.6187 23.6052ZM31.6187 17.7049C31.6187 18.7777 31.6187 19.7164 31.6187 20.7892C31.6187 21.996 31.6187 21.996 32.8194 21.996C34.1535 21.996 35.0874 21.3256 35.621 20.1187C36.2881 18.5095 36.2881 16.9003 35.4876 15.4252C35.0874 14.6206 34.4203 14.0842 33.4865 13.8161C32.9528 13.682 32.4192 13.682 31.8855 13.682C31.6187 13.682 31.4853 13.8161 31.4853 14.0842C31.6187 15.2911 31.6187 16.498 31.6187 17.7049Z" fill="#ED6206"/>
<path d="M86.8511 11.4023C87.5181 11.4023 88.3186 11.4023 89.1191 11.4023C89.9195 11.4023 90.5866 11.4023 91.3871 11.4023C91.5205 11.4023 91.6539 11.4023 91.7873 11.5364C92.4544 12.4751 93.1214 13.5479 93.9219 14.6206C96.857 18.6436 99.792 22.6665 102.727 26.6895C102.861 26.8236 102.861 26.9577 102.994 27.0918C102.994 21.8619 102.994 16.6321 102.994 11.5364C103.794 11.5364 104.595 11.5364 105.395 11.5364C105.395 15.157 105.395 18.9118 105.395 22.5324C105.395 26.1531 105.395 29.9078 105.395 33.6626C105.395 33.6626 105.262 33.6626 105.129 33.6626C103.928 33.6626 102.594 33.6626 101.393 33.6626C100.993 33.6626 100.859 33.5285 100.726 33.2603C99.9254 32.1875 99.125 30.9806 98.3245 29.9078C95.5228 26.019 92.5878 22.1301 89.7861 18.2413C89.5193 18.1072 89.5193 17.9731 89.3859 17.7049C89.3859 17.9731 89.3859 18.1072 89.3859 18.1072C89.3859 22.8006 89.3859 27.4941 89.3859 32.1875C89.3859 32.4557 89.3859 32.7239 89.5193 33.1262C89.5193 33.2603 89.5193 33.3944 89.3859 33.3944C88.5854 33.3944 87.785 33.3944 86.9845 33.3944C86.8511 26.1531 86.8511 18.7777 86.8511 11.4023Z" fill="#ED6206"/>
<path d="M57.634 21.4597C59.5018 21.4597 61.2361 21.4597 63.1039 21.4597C63.1039 21.7279 62.9705 21.9961 62.9705 22.2643C62.9705 25.2144 62.9705 28.1646 62.9705 31.1147C62.9705 31.3829 62.9705 31.6511 63.1039 32.0534C63.1039 32.3216 63.1039 32.3216 62.9705 32.4557C61.2361 32.9921 59.3684 33.6626 57.5006 33.7967C56.1665 33.9308 54.8324 33.9308 53.4982 33.7967C50.0295 33.5285 47.2279 32.1875 45.4935 28.9692C44.6931 27.6282 44.2928 26.019 44.1594 24.5439C43.8926 22.5325 44.026 20.521 44.5596 18.5095C45.7604 14.4866 48.562 12.2069 52.5644 11.2682C55.6328 10.7318 58.8347 11 61.9032 12.0728C62.0366 12.0728 62.17 12.2069 62.17 12.341C62.17 13.4138 62.17 14.4866 62.17 15.5593C61.503 15.157 60.9693 14.7548 60.3023 14.4866C58.8347 13.682 57.2338 13.4138 55.6328 13.5479C53.4982 13.8161 51.8973 14.8888 50.83 16.9003C50.163 17.9731 49.8961 19.18 49.7627 20.521C49.6293 21.4597 49.6293 22.3984 49.6293 23.337C49.6293 25.0803 49.8961 26.8236 50.5632 28.4328C51.2302 30.1761 52.431 31.2488 54.2987 31.6511C55.366 31.9193 56.2999 31.7852 57.3672 31.2488C57.634 31.1147 57.634 30.9806 57.634 30.7124C57.634 28.0305 57.634 25.3485 57.634 22.5325C57.634 22.1302 57.634 21.862 57.634 21.4597Z" fill="#ED6206"/>
<path d="M67.373 33.5285C66.4391 33.5285 65.5052 33.5285 64.7047 33.5285C66.0388 29.6396 67.3729 25.8849 68.8405 21.996C69.9078 18.7777 71.1085 15.6934 72.1758 12.4751C72.1758 12.341 72.1758 12.0728 72.3092 11.9387C72.4426 11.4023 72.3092 11.4023 72.9763 11.4023C74.177 11.4023 75.3777 11.4023 76.5784 11.4023C76.8452 11.4023 76.9786 11.5364 76.9786 11.8046C77.3788 13.1456 77.9125 14.6206 78.4461 15.9616C80.4473 21.4597 82.3151 26.8236 84.3163 32.3216C84.4497 32.7239 84.7165 33.1262 84.8499 33.5285C82.8487 33.5285 80.8476 33.5285 78.8464 33.5285C78.1793 31.517 77.5123 29.5055 76.8452 27.4941C76.7118 27.2259 76.5784 27.2259 76.445 27.2259C74.177 27.2259 71.909 27.2259 69.7744 27.2259C69.5075 27.2259 69.3741 27.36 69.3741 27.4941C68.8405 29.2374 68.1734 30.8465 67.6398 32.5898C67.3729 32.858 67.373 33.1262 67.373 33.5285ZM75.9113 24.8121C74.9774 21.996 74.0436 19.18 73.1097 16.498H72.9763C72.0424 19.3141 71.1085 21.996 70.1746 24.8121C72.1758 24.8121 74.0435 24.8121 75.9113 24.8121Z" fill="#ED6206"/>
<path d="M119.27 28.7009C119.937 29.1032 120.471 29.6396 121.138 30.0419C122.606 30.9806 124.34 31.517 126.074 30.9806C128.342 30.3101 128.876 27.8964 127.809 26.4213C127.542 26.019 127.008 25.6167 126.475 25.3485C125.407 24.8121 124.34 24.2757 123.139 23.7393C122.205 23.337 121.272 22.8006 120.471 22.1301C119.27 21.0573 118.603 19.7164 118.47 18.1072C118.203 14.7547 120.605 11.9387 124.207 11.2682C126.875 10.7318 129.41 11.1341 131.945 12.2069C132.211 12.2069 132.211 12.341 132.211 12.4751C131.945 13.4137 131.811 14.2183 131.544 15.157C131.544 15.157 131.544 15.2911 131.411 15.2911C131.144 15.157 130.877 15.0229 130.477 14.7547C129.41 14.0842 128.476 13.6819 127.275 13.4137C126.341 13.2796 125.541 13.4137 124.74 13.9501C123.273 15.0229 123.273 17.3026 124.874 18.2413C126.074 18.9118 127.275 19.4482 128.476 19.9846C129.41 20.3869 130.477 20.9232 131.277 21.5937C132.612 22.6665 133.279 24.2757 133.412 26.019C133.545 27.7623 133.145 29.3714 132.078 30.8465C130.877 32.4557 129.276 33.3944 127.409 33.7967C124.34 34.3331 121.405 33.7967 118.737 32.3216C118.603 32.3216 118.47 32.0534 118.47 32.0534C118.737 30.9806 119.004 29.9078 119.27 28.7009Z" fill="#ED6206"/>
<path d="M148.888 21.0574V21.1915C148.888 21.862 148.888 22.5324 148.888 23.0688C148.888 23.2029 148.888 23.337 148.621 23.337C147.82 23.337 146.886 23.337 146.086 23.337C144.752 23.337 143.551 23.337 142.217 23.337C141.95 23.337 141.817 23.4711 141.817 23.7393C141.817 26.019 141.817 28.2987 141.817 30.5783C141.817 30.8465 141.95 30.9806 142.217 30.9806C144.085 30.9806 145.953 30.9806 147.687 30.9806C148.087 30.9806 148.487 30.9806 148.888 30.8465C148.888 30.9806 148.888 30.9806 148.888 31.1147C148.888 31.7852 148.888 32.3216 148.888 32.9921C148.888 33.2603 148.754 33.3944 148.487 33.3944C144.485 33.3944 140.483 33.3944 136.347 33.3944C136.213 33.3944 136.214 33.3944 136.214 33.3944C136.214 26.019 136.214 18.6436 136.214 11.2682C136.347 11.2682 136.48 11.2682 136.614 11.2682C140.483 11.2682 144.485 11.2682 148.354 11.2682C148.888 11.2682 148.888 11.2682 148.888 11.8046C148.888 12.341 148.888 13.0115 148.888 13.5479C146.62 13.5479 144.485 13.5479 142.217 13.5479C141.817 13.5479 141.683 13.682 141.683 14.0843C141.683 16.3639 141.683 18.5095 141.683 20.7892C141.683 21.1915 141.817 21.1915 142.084 21.1915C143.818 21.1915 145.552 21.1915 147.42 21.1915C147.954 21.1915 148.354 21.1915 148.888 21.0574Z" fill="#ED6206"/>
<path d="M109.798 11.4023C111.532 11.4023 113.4 11.4023 115.268 11.4023C115.268 18.7777 115.268 26.1531 115.268 33.5285C113.4 33.5285 111.532 33.5285 109.798 33.5285C109.798 29.7737 109.798 26.1531 109.798 22.5324C109.798 18.7777 109.798 15.157 109.798 11.4023Z" fill="#ED6206"/>
<path d="M6 1.32L7.712 5.904L9.416 1.32H10.368L8.136 7H7.288L5.048 1.32H6ZM12.283 7.08C11.8457 7.08 11.4643 6.98133 11.139 6.784C10.819 6.58133 10.571 6.31733 10.395 5.992C10.219 5.66133 10.131 5.30133 10.131 4.912C10.131 4.52267 10.219 4.16533 10.395 3.84C10.5763 3.50933 10.827 3.24533 11.147 3.048C11.4723 2.84533 11.851 2.744 12.283 2.744C12.715 2.744 13.091 2.84533 13.411 3.048C13.7363 3.24533 13.987 3.50933 14.163 3.84C14.3443 4.16533 14.435 4.52267 14.435 4.912C14.435 5.30133 14.347 5.66133 14.171 5.992C13.995 6.31733 13.7443 6.58133 13.419 6.784C13.099 6.98133 12.7203 7.08 12.283 7.08ZM11.035 4.92C11.035 5.18667 11.091 5.42667 11.203 5.64C11.315 5.85333 11.4643 6.02133 11.651 6.144C11.8377 6.26667 12.0483 6.328 12.283 6.328C12.5123 6.328 12.7203 6.26667 12.907 6.144C13.099 6.016 13.251 5.84533 13.363 5.632C13.475 5.41867 13.531 5.17867 13.531 4.912C13.531 4.64533 13.475 4.40533 13.363 4.192C13.251 3.97867 13.099 3.81067 12.907 3.688C12.7203 3.56 12.5123 3.496 12.283 3.496C12.0537 3.496 11.843 3.56 11.651 3.688C11.4643 3.81067 11.315 3.98133 11.203 4.2C11.091 4.41333 11.035 4.65333 11.035 4.92ZM15.2155 2.128V1.16H16.0955V2.128H15.2155ZM15.2155 7V2.816H16.0955V7H15.2155ZM19.049 7.08C18.617 7.08 18.2383 6.98133 17.913 6.784C17.5877 6.58133 17.3343 6.31467 17.153 5.984C16.9717 5.65333 16.881 5.29333 16.881 4.904C16.881 4.51467 16.969 4.15733 17.145 3.832C17.3263 3.50133 17.577 3.23733 17.897 3.04C18.2223 2.84267 18.6063 2.744 19.049 2.744C19.481 2.744 19.8517 2.84 20.161 3.032C20.4757 3.21867 20.7103 3.46933 20.865 3.784L20.009 4.056C19.913 3.88 19.777 3.744 19.601 3.648C19.4303 3.54667 19.241 3.496 19.033 3.496C18.7983 3.496 18.585 3.55733 18.393 3.68C18.2063 3.79733 18.057 3.96267 17.945 4.176C17.8383 4.38933 17.785 4.632 17.785 4.904C17.785 5.176 17.841 5.41867 17.953 5.632C18.0703 5.84533 18.2223 6.016 18.409 6.144C18.601 6.26667 18.8117 6.328 19.041 6.328C19.2543 6.328 19.457 6.272 19.649 6.16C19.841 6.048 19.969 5.912 20.033 5.752L20.897 6.008C20.7583 6.32267 20.5263 6.58133 20.201 6.784C19.8757 6.98133 19.4917 7.08 19.049 7.08ZM23.4787 7.08C23.0467 7.08 22.668 6.98133 22.3427 6.784C22.0174 6.58667 21.764 6.32533 21.5827 6C21.4014 5.66933 21.3107 5.30933 21.3107 4.92C21.3107 4.52533 21.4014 4.16267 21.5827 3.832C21.764 3.50133 22.0174 3.23733 22.3427 3.04C22.668 2.84267 23.0494 2.744 23.4867 2.744C23.924 2.744 24.3027 2.84533 24.6227 3.048C24.9427 3.24533 25.188 3.50667 25.3587 3.832C25.5347 4.15733 25.6227 4.50667 25.6227 4.88C25.6227 5.01333 25.6147 5.12 25.5987 5.2H22.2467C22.2627 5.44533 22.3294 5.66133 22.4467 5.848C22.5694 6.02933 22.7214 6.17333 22.9027 6.28C23.0894 6.38133 23.292 6.432 23.5107 6.432C23.7454 6.432 23.9667 6.37333 24.1747 6.256C24.3827 6.13867 24.5267 5.984 24.6067 5.792L25.3587 6.008C25.2147 6.32267 24.9747 6.58133 24.6387 6.784C24.308 6.98133 23.9214 7.08 23.4787 7.08ZM22.2227 4.616H24.7507C24.7294 4.376 24.66 4.16533 24.5427 3.984C24.4254 3.79733 24.2734 3.65333 24.0867 3.552C23.9054 3.44533 23.7027 3.392 23.4787 3.392C23.26 3.392 23.0574 3.44533 22.8707 3.552C22.6894 3.65333 22.54 3.79733 22.4227 3.984C22.3054 4.16533 22.2387 4.376 22.2227 4.616ZM30.1971 7.08C29.7597 7.08 29.3784 6.98133 29.0531 6.784C28.7331 6.58133 28.4851 6.31733 28.3091 5.992C28.1331 5.66133 28.0451 5.30133 28.0451 4.912C28.0451 4.52267 28.1331 4.16533 28.3091 3.84C28.4904 3.50933 28.7411 3.24533 29.0611 3.048C29.3864 2.84533 29.7651 2.744 30.1971 2.744C30.6291 2.744 31.0051 2.84533 31.3251 3.048C31.6504 3.24533 31.9011 3.50933 32.0771 3.84C32.2584 4.16533 32.3491 4.52267 32.3491 4.912C32.3491 5.30133 32.2611 5.66133 32.0851 5.992C31.9091 6.31733 31.6584 6.58133 31.3331 6.784C31.0131 6.98133 30.6344 7.08 30.1971 7.08ZM28.9491 4.92C28.9491 5.18667 29.0051 5.42667 29.1171 5.64C29.2291 5.85333 29.3784 6.02133 29.5651 6.144C29.7517 6.26667 29.9624 6.328 30.1971 6.328C30.4264 6.328 30.6344 6.26667 30.8211 6.144C31.0131 6.016 31.1651 5.84533 31.2771 5.632C31.3891 5.41867 31.4451 5.17867 31.4451 4.912C31.4451 4.64533 31.3891 4.40533 31.2771 4.192C31.1651 3.97867 31.0131 3.81067 30.8211 3.688C30.6344 3.56 30.4264 3.496 30.1971 3.496C29.9677 3.496 29.7571 3.56 29.5651 3.688C29.3784 3.81067 29.2291 3.98133 29.1171 4.2C29.0051 4.41333 28.9491 4.65333 28.9491 4.92ZM33.3149 7V3.6H32.7549V2.92H33.3149V2.752C33.3149 2.24 33.4349 1.83467 33.6749 1.536C33.9202 1.232 34.2455 1.08 34.6509 1.08C34.9922 1.08 35.3175 1.16533 35.6269 1.336L35.4349 1.992C35.3549 1.944 35.2589 1.904 35.1469 1.872C35.0402 1.84 34.9362 1.824 34.8349 1.824C34.6269 1.824 34.4669 1.90133 34.3549 2.056C34.2482 2.21067 34.1949 2.43467 34.1949 2.728V2.92H35.2669V3.6H34.1949V7H33.3149ZM40.0591 6.784C39.9471 6.83733 39.7925 6.89867 39.5951 6.968C39.3978 7.032 39.1871 7.064 38.9631 7.064C38.6858 7.064 38.4458 6.98933 38.2431 6.84C38.0458 6.69067 37.9471 6.448 37.9471 6.112V3.496H37.3951V2.816H37.9471V1.44H38.8271V2.816H39.7391V3.496H38.8271V5.832C38.8378 5.98133 38.8831 6.09067 38.9631 6.16C39.0485 6.224 39.1525 6.256 39.2751 6.256C39.3978 6.256 39.5151 6.23467 39.6271 6.192C39.7391 6.14933 39.8218 6.11467 39.8751 6.088L40.0591 6.784ZM44.4206 7H43.5406V4.656C43.5406 4.27733 43.4713 3.99467 43.3326 3.808C43.194 3.62133 42.9993 3.528 42.7486 3.528C42.5886 3.528 42.426 3.57067 42.2606 3.656C42.1006 3.74133 41.9566 3.85867 41.8286 4.008C41.7006 4.152 41.6073 4.32 41.5486 4.512V7H40.6686V1.16H41.5486V3.656C41.7086 3.368 41.9273 3.144 42.2046 2.984C42.482 2.824 42.7806 2.744 43.1006 2.744C43.4473 2.744 43.7166 2.824 43.9086 2.984C44.1006 3.13867 44.234 3.34667 44.3086 3.608C44.3833 3.864 44.4206 4.144 44.4206 4.448V7ZM47.3381 7.08C46.9061 7.08 46.5274 6.98133 46.2021 6.784C45.8767 6.58667 45.6234 6.32533 45.4421 6C45.2607 5.66933 45.1701 5.30933 45.1701 4.92C45.1701 4.52533 45.2607 4.16267 45.4421 3.832C45.6234 3.50133 45.8767 3.23733 46.2021 3.04C46.5274 2.84267 46.9087 2.744 47.3461 2.744C47.7834 2.744 48.1621 2.84533 48.4821 3.048C48.8021 3.24533 49.0474 3.50667 49.2181 3.832C49.3941 4.15733 49.4821 4.50667 49.4821 4.88C49.4821 5.01333 49.4741 5.12 49.4581 5.2H46.1061C46.1221 5.44533 46.1887 5.66133 46.3061 5.848C46.4287 6.02933 46.5807 6.17333 46.7621 6.28C46.9487 6.38133 47.1514 6.432 47.3701 6.432C47.6047 6.432 47.8261 6.37333 48.0341 6.256C48.2421 6.13867 48.3861 5.984 48.4661 5.792L49.2181 6.008C49.0741 6.32267 48.8341 6.58133 48.4981 6.784C48.1674 6.98133 47.7807 7.08 47.3381 7.08ZM46.0821 4.616H48.6101C48.5887 4.376 48.5194 4.16533 48.4021 3.984C48.2847 3.79733 48.1327 3.65333 47.9461 3.552C47.7647 3.44533 47.5621 3.392 47.3381 3.392C47.1194 3.392 46.9167 3.44533 46.7301 3.552C46.5487 3.65333 46.3994 3.79733 46.2821 3.984C46.1647 4.16533 46.0981 4.376 46.0821 4.616ZM53.1844 2.984V7H52.2884V1.32H53.0244L56.2404 5.424V1.328H57.1444V7H56.3604L53.1844 2.984ZM57.9584 5.776C57.9584 5.50933 58.033 5.27733 58.1824 5.08C58.3317 4.87733 58.5397 4.72267 58.8064 4.616C59.0784 4.504 59.3904 4.448 59.7424 4.448C59.929 4.448 60.1184 4.464 60.3104 4.496C60.5077 4.52267 60.681 4.56267 60.8304 4.616V4.352C60.8304 4.05867 60.7424 3.82933 60.5664 3.664C60.3904 3.49867 60.137 3.416 59.8064 3.416C59.577 3.416 59.3557 3.456 59.1424 3.536C58.929 3.616 58.7077 3.73333 58.4784 3.888L58.1824 3.296C58.4597 3.11467 58.737 2.97867 59.0144 2.888C59.297 2.792 59.593 2.744 59.9024 2.744C60.4624 2.744 60.9024 2.89333 61.2224 3.192C61.5477 3.48533 61.7104 3.904 61.7104 4.448V6.008C61.7104 6.10933 61.7264 6.18133 61.7584 6.224C61.7957 6.26667 61.857 6.29067 61.9424 6.296V7C61.8624 7.016 61.7904 7.02667 61.7264 7.032C61.6624 7.03733 61.609 7.04 61.5664 7.04C61.3744 7.04 61.2304 6.99467 61.1344 6.904C61.0437 6.808 60.9904 6.70133 60.9744 6.584L60.9504 6.344C60.769 6.57867 60.537 6.76 60.2544 6.888C59.9717 7.016 59.6864 7.08 59.3984 7.08C59.121 7.08 58.873 7.024 58.6544 6.912C58.4357 6.79467 58.265 6.63733 58.1424 6.44C58.0197 6.24267 57.9584 6.02133 57.9584 5.776ZM60.6224 6.032C60.761 5.89333 60.8304 5.76267 60.8304 5.64V5.16C60.5157 5.04267 60.1957 4.984 59.8704 4.984C59.5504 4.984 59.289 5.05067 59.0864 5.184C58.889 5.312 58.7904 5.48533 58.7904 5.704C58.7904 5.88533 58.8624 6.05333 59.0064 6.208C59.1557 6.35733 59.369 6.432 59.6464 6.432C59.833 6.432 60.0144 6.39467 60.1904 6.32C60.3664 6.24533 60.5104 6.14933 60.6224 6.032ZM65.0748 6.784C64.9628 6.83733 64.8081 6.89867 64.6108 6.968C64.4134 7.032 64.2028 7.064 63.9788 7.064C63.7014 7.064 63.4614 6.98933 63.2588 6.84C63.0614 6.69067 62.9628 6.448 62.9628 6.112V3.496H62.4108V2.816H62.9628V1.44H63.8428V2.816H64.7548V3.496H63.8428V5.832C63.8534 5.98133 63.8988 6.09067 63.9788 6.16C64.0641 6.224 64.1681 6.256 64.2908 6.256C64.4134 6.256 64.5308 6.23467 64.6428 6.192C64.7548 6.14933 64.8374 6.11467 64.8908 6.088L65.0748 6.784ZM65.6842 2.128V1.16H66.5643V2.128H65.6842ZM65.6842 7V2.816H66.5643V7H65.6842ZM69.5018 7.08C69.0644 7.08 68.6831 6.98133 68.3578 6.784C68.0378 6.58133 67.7898 6.31733 67.6138 5.992C67.4378 5.66133 67.3498 5.30133 67.3498 4.912C67.3498 4.52267 67.4378 4.16533 67.6138 3.84C67.7951 3.50933 68.0458 3.24533 68.3658 3.048C68.6911 2.84533 69.0698 2.744 69.5018 2.744C69.9338 2.744 70.3098 2.84533 70.6298 3.048C70.9551 3.24533 71.2058 3.50933 71.3818 3.84C71.5631 4.16533 71.6538 4.52267 71.6538 4.912C71.6538 5.30133 71.5658 5.66133 71.3898 5.992C71.2138 6.31733 70.9631 6.58133 70.6378 6.784C70.3178 6.98133 69.9391 7.08 69.5018 7.08ZM68.2538 4.92C68.2538 5.18667 68.3098 5.42667 68.4218 5.64C68.5338 5.85333 68.6831 6.02133 68.8698 6.144C69.0564 6.26667 69.2671 6.328 69.5018 6.328C69.7311 6.328 69.9391 6.26667 70.1258 6.144C70.3178 6.016 70.4698 5.84533 70.5818 5.632C70.6938 5.41867 70.7498 5.17867 70.7498 4.912C70.7498 4.64533 70.6938 4.40533 70.5818 4.192C70.4698 3.97867 70.3178 3.81067 70.1258 3.688C69.9391 3.56 69.7311 3.496 69.5018 3.496C69.2724 3.496 69.0618 3.56 68.8698 3.688C68.6831 3.81067 68.5338 3.98133 68.4218 4.2C68.3098 4.41333 68.2538 4.65333 68.2538 4.92ZM76.1863 7H75.3063V4.656C75.3063 4.26133 75.2423 3.976 75.1143 3.8C74.9916 3.61867 74.8076 3.528 74.5623 3.528C74.3916 3.528 74.2209 3.57067 74.0503 3.656C73.8849 3.74133 73.7356 3.85867 73.6023 4.008C73.4689 4.15733 73.3729 4.32533 73.3143 4.512V7H72.4342V2.816H73.2343V3.656C73.3943 3.37867 73.6263 3.15733 73.9303 2.992C74.2343 2.82667 74.5703 2.744 74.9383 2.744C75.2689 2.744 75.5249 2.824 75.7063 2.984C75.8876 3.13867 76.0129 3.344 76.0823 3.6C76.1516 3.856 76.1863 4.13867 76.1863 4.448V7Z" fill="white"/>
</svg>
