<svg width="20" height="23" viewBox="0 0 20 23" fill="none" xmlns="http://www.w3.org/2000/svg">
<g clip-path="url(#clip0)">
<path d="M18.1 21.2H1C1 20.1 1 19 1 17.8C1 17.4 1.1 16.9 1.3 16.5C1.8 15.1 2.8 14.2 4.1 13.6C7.8 12 11.5 12 15.2 13.6C16.7 14.2 17.7 15.4 18.1 17C18.1 17.1 18.1 17.1 18.1 17.2C18.1 18.5 18.1 19.8 18.1 21.2Z" stroke="#E0DCDB" stroke-width="2" stroke-miterlimit="10" stroke-linecap="round" stroke-linejoin="round"/>
<path d="M14.7999 6.2C14.7999 9.1 12.4999 11.4 9.5999 11.4C6.6999 11.4 4.3999 9.1 4.3999 6.3C4.3999 3.3 6.7999 1 9.5999 1C12.4999 1 14.7999 3.3 14.7999 6.2Z" stroke="#E0DCDB" stroke-width="2" stroke-miterlimit="10" stroke-linecap="round" stroke-linejoin="round"/>
</g>
<defs>
<clipPath id="clip0">
<rect width="19.1" height="22.2" fill="white"/>
</clipPath>
</defs>
</svg>
