<svg width="112" height="38" viewBox="0 0 112 38" fill="none" xmlns="http://www.w3.org/2000/svg">
<path d="M111.91 32.2C111.91 34.93 109.7 37.15 106.96 37.15H4.95C2.22 37.15 0 34.94 0 32.2V5.49004C0 2.76004 2.22 0.540039 4.95 0.540039H106.97C109.7 0.540039 111.92 2.76004 111.92 5.49004V32.2H111.91Z" fill="white"/>
<path d="M24.2501 16.66L19.2001 13.75C19.2001 13.75 10.0101 8.44003 9.47014 8.13003C8.93014 7.82003 8.39014 8.00003 8.39014 8.65003C8.39014 9.74003 8.39014 19.98 8.39014 19.98C8.39014 19.98 8.39014 31.05 8.39014 31.54C8.39014 32.03 8.77014 32.24 9.24014 31.97C9.71014 31.7 19.2001 26.22 19.2001 26.22L24.2501 23.31C24.2501 23.31 28.5301 20.84 29.1001 20.51C29.6701 20.18 29.6101 19.73 29.1301 19.47C28.6601 19.22 24.2501 16.66 24.2501 16.66Z" fill="black"/>
<path d="M8.39014 7.58997V19.99V32.38L20.9001 19.99L8.39014 7.58997Z" fill="black" stroke="white" stroke-width="0.75" stroke-miterlimit="10"/>
<path d="M24.2501 16.66L19.2101 13.74L8.39014 7.5V7.59L20.9001 19.99L24.2501 16.66Z" fill="black" stroke="white" stroke-width="0.75" stroke-miterlimit="10"/>
<path d="M8.39014 32.38V32.47L19.2101 26.23L24.2501 23.32L20.9001 19.99L8.39014 32.38Z" fill="black" stroke="white" stroke-width="0.75" stroke-miterlimit="10"/>
<path d="M24.2499 16.66L20.8999 19.99L24.2499 23.32L30.0199 19.99L24.2499 16.66Z" fill="black" stroke="white" stroke-width="0.75" stroke-miterlimit="10"/>
<path d="M24.2501 16.66L19.2001 13.75C19.2001 13.75 10.0101 8.44003 9.47014 8.13003C8.93014 7.82003 8.39014 8.00003 8.39014 8.65003C8.39014 9.74003 8.39014 19.98 8.39014 19.98C8.39014 19.98 8.39014 31.05 8.39014 31.54C8.39014 32.03 8.77014 32.24 9.24014 31.97C9.71014 31.7 19.2001 26.22 19.2001 26.22L24.2501 23.31C24.2501 23.31 28.5301 20.84 29.1001 20.51C29.6701 20.18 29.6101 19.73 29.1301 19.47C28.6601 19.22 24.2501 16.66 24.2501 16.66Z" stroke="white" stroke-width="0.75" stroke-miterlimit="10"/>
<path d="M87.1002 24.8301C86.6302 24.8301 86.2002 24.7401 85.8102 24.5701C85.4202 24.4001 85.1002 24.1301 84.8302 23.7701H84.7502C84.8002 24.1901 84.8302 24.5901 84.8302 24.9701V27.9401H83.7402V17.4901H84.6302L84.7802 18.4801H84.8302C85.1102 18.0901 85.4402 17.8001 85.8102 17.6201C86.1802 17.4401 86.6102 17.3601 87.0902 17.3601C88.0502 17.3601 88.7802 17.6901 89.3002 18.3401C89.8202 18.9901 90.0802 19.9101 90.0802 21.0901C90.0802 22.2701 89.8202 23.1901 89.2902 23.8501C88.7702 24.5101 88.0402 24.8301 87.1002 24.8301ZM86.9402 18.2901C86.2002 18.2901 85.6702 18.4901 85.3402 18.9001C85.0102 19.3101 84.8402 19.9601 84.8302 20.8501V21.0901C84.8302 22.1001 85.0002 22.8301 85.3402 23.2601C85.6802 23.7001 86.2202 23.9101 86.9602 23.9101C87.5802 23.9101 88.0702 23.6601 88.4202 23.1501C88.7702 22.6501 88.9502 21.9501 88.9502 21.0601C88.9502 20.1601 88.7702 19.4701 88.4202 18.9901C88.0802 18.5301 87.5802 18.2901 86.9402 18.2901Z" fill="black"/>
<path d="M92.6203 24.7001H91.5303V14.4701H92.6203V24.7001Z" fill="black"/>
<path d="M98.9004 24.7001L98.6804 23.6701H98.6304C98.2704 24.1201 97.9104 24.4301 97.5504 24.5901C97.1904 24.7501 96.7504 24.8301 96.2104 24.8301C95.5004 24.8301 94.9304 24.6501 94.5304 24.2801C94.1304 23.9101 93.9204 23.3901 93.9204 22.7101C93.9204 21.2501 95.0804 20.4901 97.4104 20.4201L98.6304 20.3801V19.9301C98.6304 19.3601 98.5104 18.9501 98.2604 18.6801C98.0204 18.4101 97.6304 18.2801 97.0904 18.2801C96.4904 18.2801 95.8104 18.4601 95.0504 18.8301L94.7104 17.9901C95.0704 17.8001 95.4504 17.6501 95.8804 17.5401C96.3004 17.4301 96.7304 17.3801 97.1504 17.3801C98.0104 17.3801 98.6504 17.5701 99.0604 17.9501C99.4704 18.3301 99.6804 18.9401 99.6804 19.7901V24.7101H98.9004V24.7001ZM96.4304 23.9301C97.1104 23.9301 97.6404 23.7401 98.0304 23.3701C98.4204 23.0001 98.6104 22.4801 98.6104 21.8001V21.1501L97.5204 21.2001C96.6504 21.2301 96.0304 21.3701 95.6404 21.6101C95.2604 21.8501 95.0604 22.2201 95.0604 22.7201C95.0604 23.1101 95.1804 23.4201 95.4204 23.6201C95.6604 23.8301 96.0004 23.9301 96.4304 23.9301Z" fill="black"/>
<path d="M100.34 17.4901H101.51L103.09 21.6001C103.44 22.5401 103.65 23.2201 103.74 23.6301H103.79C103.85 23.4101 103.97 23.0201 104.15 22.4801C104.33 21.9401 104.93 20.2701 105.94 17.4801H107.11L104 25.7001C103.69 26.5101 103.33 27.0901 102.92 27.4301C102.51 27.7701 102.01 27.9401 101.41 27.9401C101.08 27.9401 100.75 27.9001 100.42 27.8301V26.9601C100.66 27.0101 100.93 27.0401 101.23 27.0401C101.98 27.0401 102.51 26.6201 102.84 25.7801L103.24 24.7501L100.34 17.4901Z" fill="black"/>
<path d="M66.8697 18.16C67.2197 18.45 67.9397 19.05 67.9397 20.2C67.9397 21.32 67.3097 21.84 66.6697 22.34C66.4697 22.54 66.2497 22.75 66.2497 23.08C66.2497 23.41 66.4797 23.59 66.6397 23.73L67.1797 24.15C67.8397 24.71 68.4497 25.22 68.4497 26.26C68.4497 27.68 67.0797 29.11 64.4797 29.11C62.2897 29.11 61.2397 28.07 61.2397 26.95C61.2397 26.41 61.5097 25.64 62.3997 25.11C63.3297 24.54 64.5997 24.46 65.2797 24.42C65.0697 24.15 64.8297 23.86 64.8297 23.4C64.8297 23.14 64.9097 22.99 64.9797 22.81C64.8097 22.83 64.6497 22.84 64.4997 22.84C62.8997 22.84 61.9997 21.65 61.9997 20.47C61.9997 19.78 62.3197 19.01 62.9597 18.45C63.8197 17.74 64.8497 17.62 65.6597 17.62H68.7697L67.7997 18.16H66.8697ZM65.7997 24.86C65.6797 24.84 65.5997 24.84 65.4497 24.84C65.3097 24.84 64.4997 24.87 63.8697 25.08C63.5397 25.2 62.5697 25.56 62.5697 26.63C62.5697 27.7 63.6097 28.47 65.2197 28.47C66.6697 28.47 67.4397 27.77 67.4397 26.84C67.4397 26.08 66.9397 25.67 65.7997 24.86ZM66.2297 21.99C66.5797 21.64 66.6097 21.16 66.6097 20.89C66.6097 19.8 65.9597 18.12 64.7097 18.12C64.3197 18.12 63.8997 18.32 63.6497 18.62C63.3897 18.94 63.3197 19.34 63.3197 19.74C63.3197 20.75 63.9097 22.42 65.2097 22.42C65.5897 22.41 65.9897 22.23 66.2297 21.99Z" fill="black"/>
<path d="M57.3702 24.62C54.9802 24.62 53.7002 22.75 53.7002 21.07C53.7002 19.1 55.3102 17.41 57.6002 17.41C59.8102 17.41 61.2002 19.14 61.2002 20.96C61.2002 22.73 59.8302 24.62 57.3702 24.62ZM59.2602 23.4C59.6202 22.92 59.7102 22.32 59.7102 21.73C59.7102 20.4 59.0802 17.88 57.2102 17.88C56.7102 17.88 56.2202 18.08 55.8602 18.39C55.2702 18.92 55.1702 19.58 55.1702 20.23C55.1702 21.72 55.9102 24.17 57.7302 24.17C58.3102 24.16 58.9102 23.88 59.2602 23.4Z" fill="black"/>
<path d="M49.21 24.62C46.82 24.62 45.54 22.75 45.54 21.07C45.54 19.1 47.15 17.41 49.44 17.41C51.65 17.41 53.04 19.14 53.04 20.96C53.04 22.73 51.67 24.62 49.21 24.62ZM51.1 23.4C51.46 22.92 51.55 22.32 51.55 21.73C51.55 20.4 50.92 17.88 49.05 17.88C48.55 17.88 48.06 18.08 47.7 18.39C47.11 18.91 47 19.57 47 20.22C47 21.71 47.74 24.16 49.56 24.16C50.15 24.16 50.75 23.88 51.1 23.4Z" fill="black"/>
<path d="M44.39 24.38L42.23 24.88C41.35 25.02 40.56 25.14 39.73 25.14C35.55 25.14 33.96 22.07 33.96 19.66C33.96 16.72 36.21 14 40.08 14C40.9 14 41.68 14.12 42.4 14.32C43.54 14.64 44.06 15.03 44.4 15.26L43.14 16.46L42.61 16.58L42.99 15.97C42.48 15.47 41.54 14.55 39.75 14.55C37.36 14.55 35.56 16.37 35.56 19.02C35.56 21.86 37.62 24.54 40.92 24.54C41.89 24.54 42.39 24.34 42.84 24.16V21.72L40.55 21.84L41.76 21.19H44.97L44.58 21.57C44.47 21.66 44.46 21.69 44.43 21.81C44.41 21.95 44.4 22.39 44.4 22.54V24.38H44.39Z" fill="black"/>
<path d="M71.6502 23.94C71.1502 23.89 71.0502 23.8 71.0502 23.21V23.04V14.64C71.0502 14.61 71.0602 14.57 71.0602 14.54C71.1202 14.01 71.2702 13.92 71.7402 13.65H69.5702L68.4302 14.2H69.5902V14.21V14.2V23.04V23.54C69.5902 23.84 69.5302 23.89 69.1802 24.34H71.8602L72.4202 24.01C72.1702 23.99 71.9102 23.97 71.6502 23.94Z" fill="black"/>
<path d="M77.8101 24.08C77.6501 24.17 77.4801 24.28 77.3201 24.35C76.8201 24.58 76.3101 24.64 75.8601 24.64C75.3801 24.64 74.6301 24.61 73.8601 24.05C72.7901 23.3 72.3301 22.01 72.3301 20.88C72.3301 18.55 74.2201 17.41 75.7701 17.41C76.3101 17.41 76.8701 17.55 77.3201 17.83C78.0701 18.33 78.2701 18.97 78.3701 19.32L74.8401 20.75L73.6801 20.84C74.0601 22.75 75.3501 23.86 76.7801 23.86C77.5501 23.86 78.1001 23.59 78.6101 23.33L77.8101 24.08ZM76.4001 19.6C76.6901 19.5 76.8401 19.4 76.8401 19.19C76.8401 18.59 76.1601 17.9 75.3501 17.9C74.7501 17.9 73.6201 18.37 73.6201 19.99C73.6201 20.25 73.6501 20.52 73.6701 20.79L76.4001 19.6Z" fill="black"/>
<path d="M79.2601 17.51V18.5H79.1401V17.51H78.8101V17.41H79.5901V17.51H79.2601Z" fill="black"/>
<path d="M80.6103 18.5V17.5H80.6003L80.2903 18.5H80.2003L79.8903 17.5V18.5H79.7803V17.41H79.9703L80.2503 18.29L80.5203 17.41H80.7103V18.5H80.6103Z" fill="black"/>
</svg>
